<?xml version="1.0" encoding="utf-8"?>
<svg xmlns="http://www.w3.org/2000/svg" viewBox="0 0 130 130"><defs><style>.cls-1{fill:#ffd6df;}.cls-2{fill:none;stroke:#000;stroke-linecap:round;stroke-linejoin:round;stroke-width:0.75px;}</style></defs><title>update</title><g id="Layer_4" data-name="Layer 4"><path class="cls-1" d="M25.11,113.2l1.78-1.55L30,109.88,35,108l4.56-1.36h.34l4.38-1.63,5.54-2.94,3.31-2.3,5.42-4.26-1.15-3.12a9.05,9.05,0,0,1-.39-2.2,6.5,6.5,0,0,1,.5-1.34l-.7-1.62A6.17,6.17,0,0,1,56.16,85c0-.91,0-2.33,0-2.33l-.17-1.78A6.71,6.71,0,0,1,55.53,79a5.91,5.91,0,0,1,.27-1.47l-1.5-1.86-1.58.39-1.22-.39L50,74.48l-1.73-2.14-1.17-2.61-.5-2V66.9l-1.91-2.72L43,60.58l-1.13-3.8-.41-3.91.13-5.75.89-4.24.12-.41,1.16-3.2,1.08-2.15,1-1.55-3-.24-2.43-.69L38.07,33l-1.7-3.16.35-3.64,1.39-3.07,1.5-2,3.33-2.86,4.07-2,3.57-.93,3.14.11,2.92.84,1.93,1.36,1,1.55.28,1.52-.46,1.64,1.36.71.82.91v1.38l-.75,1.47,2.73-.22,3.27.14,3.65.72,3.41,1.35,3.46,2.31L80.85,35l1.66,2.7,1.26,2.84,1.28,4.85-.26,2.88-.19.36.68,2.26.89,2.87,1.89,3.86,1.23,4.65.28,2.31.08,3.93-.57,4.27-.83,3.3-1.47,3.65-1.73,2.81.84,5.64,1.32,3.55,1.92,2.45,3.33,2.11,3.61,1.09,4.69.8,8.09.64,1.73.06h6.9A62.23,62.23,0,1,0,25.11,113.2Z"/><path class="cls-1" d="M46.78,66.65s.63-1.34,1.7-1.22,1.89,1.34,2.72,1.14.59-1.22.59-1.22a34.45,34.45,0,0,1-1.18-5.73c0-1.57-.08-6.27.32-7.57s.33-2,.52-2.58.55-1.59.79-2.17S53,42.55,50.9,41s-5.12-.82-7,.63c-2.21,1.75-2.41,5.94-2.41,5.94a38.38,38.38,0,0,0-.24,5.51c.19,1.31.43,4.69.82,5.51s1.59,3.81,2,4.78A21.56,21.56,0,0,0,46.78,66.65Z"/><path class="cls-1" d="M58.49,96.36a1,1,0,0,0-1.72-.2,14.14,14.14,0,0,1-1.88,2.07A90.33,90.33,0,0,1,46.2,104c-1.5.68-8.24,3-9.82,3.45a40.22,40.22,0,0,0-6.59,2.4c-1.43.82-3.64,2-4.6,3.47-.46.7,9.8,6.76,9.83,6.69,1.62-3.91,2.31-4.24,7.64-5.63,9.14-2.38,11.73-3.78,15.11-6,3.61-2.4,5.46-4.45,5.95-5.79.15-.4-.81-.65-1.15-.91a12.82,12.82,0,0,1-1.47-1.21,30.7,30.7,0,0,1-2.6-4.06Z"/><path class="cls-2" d="M79.93,86.12A10.44,10.44,0,0,0,82,85.28c6.59-3.55,10.59-19.61,5-30-.28-.51-.73-1.31-1-1.84a9.59,9.59,0,0,1-.75-2.57"/><path class="cls-2" d="M55.72,41.55C50.58,47.49,48.86,57.31,52.56,68A29.42,29.42,0,0,0,68.48,84.84"/><path class="cls-2" d="M45.16,64.91a18.75,18.75,0,0,1-1.23-2.08c-5.48-10.72-3.15-33.63,16.87-36,22.27-2.65,26,21.29,23.63,21.8-1.3.28-3.21-5.85-5.87-8.71-5.63-6-9.6-4.91-14.79-3.53-5.35,1.41-11.74,3.45-13.21.78-1.09-2,1.85-4,2.84-4.91C55.92,30,62.68,26.88,61.53,24s-12.9-2.37-13.17.47c-.23,2.33,11.86.86,11.48-4.42a4.8,4.8,0,0,0-1.61-2.71c-3.15-2.71-9-2.68-14.28.36-6.18,3.57-9.18,9.93-6.71,14.2a7.45,7.45,0,0,0,5.31,3.44"/><path class="cls-2" d="M50.64,66.52c-.84-1.77-6.14-1.93-3.15,4.12,2.88,5.84,5.39,5.82,6.65,5.14"/><path class="cls-2" d="M63.45,87.16a27.77,27.77,0,0,0-3.23-3.45,11.65,11.65,0,0,1-3.15-4.23A18.19,18.19,0,0,0,56,77.55"/><path class="cls-2" d="M55.94,81a10.27,10.27,0,0,0,1.83,4.52,16.43,16.43,0,0,1,2.66,3.53c.55,1.11,1.12,2.51,1.12,2.51"/><path class="cls-2" d="M57,87.27a10.15,10.15,0,0,0,1.43,3,16.3,16.3,0,0,1,1.94,4.06"/><path class="cls-2" d="M57.53,92.6c1.08,2.56,1.39,5.13,3.22,7.14A59,59,0,0,0,67,105a13.25,13.25,0,0,1,4,4.66c.88,2.06.89,8.15.89,9.59v2.54"/><path class="cls-2" d="M74.72,92s-7.58-11.63-5-13c1.46-.76,2.83,1.31,4,3.2.67,1.13,2.39,3.58,3.94,5.68A40.84,40.84,0,0,1,81.52,94a10.81,10.81,0,0,1,.64,6.11,22,22,0,0,0,.2,5.72c.28,1.71.38,2.39.68,4.8.31,2.56.47,4.19.47,4.19"/><path class="cls-2" d="M67.24,86.13s1.26,1.07,2,1.6,1.22.81,1.22.81"/><path class="cls-2" d="M85.89,87.93a10.6,10.6,0,0,0,7.28,8.63c4.45,1.55,10.68,2.09,17.41,2.32"/><path class="cls-2" d="M56.09,97.44a48.33,48.33,0,0,1-11.79,7.61c-6.22,2.6-15.14,3.62-19.19,8.15"/><path class="cls-2" d="M61.44,63.08a4.67,4.67,0,0,1,3.34-3.24,6.2,6.2,0,0,1,4.47.3"/><path class="cls-2" d="M78.35,56.89a4.32,4.32,0,0,1,2.4-2.71A4.83,4.83,0,0,1,84.29,54"/><path class="cls-2" d="M83.18,50.37s-7.54.86-7.41,6.66A11.49,11.49,0,0,0,78,63.24c.51.72.86,1.16,1.51,2s1.24,1.42,1.16,2.4-1.66,1.85-3,1.85a8.6,8.6,0,0,0-2.51.65,1.56,1.56,0,0,1-1.67-.41,1.61,1.61,0,0,1-.12-1.22"/><path class="cls-2" d="M57.36,60.17a13.86,13.86,0,0,1,5.47-4,12.24,12.24,0,0,1,5.08-.72"/><path class="cls-2" d="M73.18,76.61a43.88,43.88,0,0,0,7.19-1.87,11.06,11.06,0,0,0,3.69-2.4"/><circle class="cls-2" cx="65" cy="61.23" r="1.34"/><circle class="cls-2" cx="81.34" cy="55.44" r="1.34"/></g></svg>