<svg data-name="Layer 1" xmlns="http://www.w3.org/2000/svg" viewBox="0 0 110.95 20"><path d="M10.47.49h-.69a.7.7 0 0 0-.78.76v6.06H2.24V1.25a.69.69 0 0 0-.76-.76H.76a.69.69 0 0 0-.76.76v13.26a.69.69 0 0 0 .76.76h.72a.69.69 0 0 0 .76-.76V9.12H9v5.39a.7.7 0 0 0 .78.76h.69a.69.69 0 0 0 .76-.76V1.25a.69.69 0 0 0-.76-.76zm10.38 4a5.52 5.52 0 0 0-5.7 5.51c0 3 2.28 5.49 6 5.49a6.17 6.17 0 0 0 4-1.31.75.75 0 0 0 .14-1.2l-.14-.17a.76.76 0 0 0-1.08-.1 5 5 0 0 1-2.87.88c-2.31 0-3.93-1.44-3.87-3.4h8.19c.51 0 .81-.27.74-.78a5.12 5.12 0 0 0-5.41-4.95zm-3.36 4.1a3.42 3.42 0 0 1 3.4-2.28 3.06 3.06 0 0 1 3.19 2.28zM31.29 0h-.64a.71.71 0 0 0-.78.76v13.75a.7.7 0 0 0 .78.76h.64a.69.69 0 0 0 .76-.76V.76a.69.69 0 0 0-.76-.76zm6.76 0h-.64a.71.71 0 0 0-.78.76v13.75a.7.7 0 0 0 .78.76h.64a.69.69 0 0 0 .76-.76V.76a.69.69 0 0 0-.76-.76zm10.07 4.46A5.52 5.52 0 1 0 53.74 10a5.54 5.54 0 0 0-5.62-5.54zm0 9.14A3.52 3.52 0 0 1 44.7 10a3.44 3.44 0 1 1 6.87 0 3.51 3.51 0 0 1-3.45 3.6zm17-5.91a3.38 3.38 0 0 0 2.78-3.38C67.89 1.92 65.8.49 63 .49h-4.59a.69.69 0 0 0-.76.76v13.26a.69.69 0 0 0 .76.76h5.24c3 0 4.94-1.56 4.94-3.95a3.57 3.57 0 0 0-3.48-3.63zm-5.23-5.37H63c1.42 0 2.64.74 2.64 2.16 0 1.27-1 2.51-3.46 2.51h-2.29zm3.74 11.11h-3.74V8.68h2.7c2.62 0 3.72 1.25 3.72 2.56s-1.12 2.19-2.68 2.19zm13.56-9A5.52 5.52 0 1 0 82.81 10a5.54 5.54 0 0 0-5.62-5.54zm0 9.14A3.52 3.52 0 0 1 73.77 10a3.44 3.44 0 1 1 6.86 0 3.51 3.51 0 0 1-3.44 3.6zM96.16 0h-.63a.71.71 0 0 0-.78.76v5.6A4.37 4.37 0 0 0 91 4.46 5.22 5.22 0 0 0 85.73 10 5.24 5.24 0 0 0 91 15.5a4.37 4.37 0 0 0 3.78-1.9v.91a.7.7 0 0 0 .78.76h.63a.69.69 0 0 0 .76-.76V.76a.69.69 0 0 0-.79-.76zm-4.9 13.6A3.35 3.35 0 0 1 87.9 10a3.36 3.36 0 0 1 3.36-3.64A3.47 3.47 0 0 1 94.79 10a3.46 3.46 0 0 1-3.53 3.6zm19-8.91h-.86a.87.87 0 0 0-.91.61l-2.7 7.14-2.94-7.16a.83.83 0 0 0-.87-.59h-.84c-.57 0-.82.36-.59.89l4 9.29-1.55 4.24c-.21.53 0 .89.59.89h.51a.84.84 0 0 0 .88-.59l5.89-13.83c.23-.58-.03-.89-.6-.89z" fill="#110c0d"/></svg>